<?xml version="1.0" encoding="utf-8"?>
<!-- Generator: Adobe Illustrator 26.0.3, SVG Export Plug-In . SVG Version: 6.00 Build 0)  -->
<svg version="1.0" id="katman_1" xmlns="http://www.w3.org/2000/svg" xmlns:xlink="http://www.w3.org/1999/xlink" x="0px" y="0px"
	 viewBox="0 0 800 600" style="enable-background:new 0 0 800 600;" xml:space="preserve">
<style type="text/css">
	.st0{fill-rule:evenodd;clip-rule:evenodd;}
	.st1{fill-rule:evenodd;clip-rule:evenodd;fill:url(#_x2F_m_00000051354886561133587400000014514702396424124828_);}
	.st2{fill-rule:evenodd;clip-rule:evenodd;fill:#678E9D;}
</style>
<g id="Symbols">
	<g id="Navigation-_x2F_-Logged-Out-_x28_web_x29_" transform="translate(-60.000000, -22.000000)">
		<g id="Logo-_x2F_-White-Colored-_x28_web_x29_" transform="translate(60.000000, 22.000000)">
			<g id="Showmax_white" transform="translate(0.000000, 0.700000)">
				<path id="h" class="st0" d="M146.9,243l29.8-3v41.5c5.5-7.1,13.3-13.6,25.4-13.6c18,0,28.8,12,28.8,31.4V355h-29.6v-46
					c0-9.5-4.9-14.5-12.1-14.5s-12.5,5.1-12.5,14.5v46h-29.8V243"/>
				<path id="o" class="st0" d="M293.8,312.9v-0.3c0-10.6-7.7-19.4-18.2-19.4c-10.8,0-17.7,8.7-17.7,19.1v0.3
					c0,10.4,7.5,19.3,18,19.3C286.7,331.9,293.8,323.2,293.8,312.9L293.8,312.9z M229,312.9v-0.3c0-24.3,19.8-44.7,46.9-44.7
					c27.1,0,46.7,20,46.7,44.4v0.3c0,24.3-19.8,44.7-47,44.7C248.6,357.3,229,337.2,229,312.9L229,312.9z"/>
				<polyline id="w" class="st0" points="401.8,313.9 387.7,270.2 363.2,270.2 350,312.5 338.9,270.2 309.9,270.2 335.8,355 
					361.2,355 375.3,310.9 389.1,355 401.8,313.9 				"/>
				<polyline id="m" class="st0" points="530.7,270.2 505.3,270.2 491.2,314.4 477.3,270.2 464.9,310.4 478.8,355 503.2,355 
					516.4,312.7 527.5,355 556.6,355 530.7,270.2 				"/>
				<path id="s" class="st0" d="M72.6,344.3l11.1-18c9.7,6.5,20.2,9.8,29,9.8c5.2,0,7.7-1.6,7.7-4.6v-0.3c0-3.5-4.9-4.9-13.8-7.4
					c-16.8-4.4-30.1-10.1-30.1-27.2v-0.3c0-18.2,14.4-28.3,34-28.3c12.4,0,25.2,3.6,35,9.9l-10.2,18.9c-8.8-5.1-18.3-8.1-25.1-8.1
					c-4.5,0-6.9,1.7-6.9,4.3v0.3c0,3.3,5,4.9,13.8,7.6c16.8,4.7,30.1,10.6,30.1,27.2v0.3c0,18.8-14,28.6-34.7,28.6
					C98.3,357.1,84.2,352.8,72.6,344.3"/>
				<path id="ax" class="st0" d="M634,337v-48l22.4,24L634,337L634,337z M610,312.6c0,11.4-8.3,19.4-18.1,19.4
					c-9.6,0-18.1-8.1-18.1-19.4v-0.3c0-11.4,8.5-19.4,18.1-19.4c9.7,0,18.1,8.2,18.1,19.4V312.6L610,312.6z M727.7,270.2h-38.1
					l-15.7,19.6l-15.7-19.6h-49.6v10.1c-6-6.5-12.9-12.3-25.8-12.3c-20.1,0-37.4,16.9-37.4,44.7v0.3c0,27.3,17.3,44.2,37.6,44.2
					c12.7,0,19.6-6.2,25.6-13.3V355h50l15.4-19.1l15.3,19.1h38.1l-34.4-42.2L727.7,270.2L727.7,270.2z"/>
				
					<linearGradient id="_x2F_m_00000075870416868518666040000013877462212414310798_" gradientUnits="userSpaceOnUse" x1="27.6465" y1="587.8257" x2="27.6465" y2="583.7765" gradientTransform="matrix(13.4634 0 0 -20.8205 44.2804 12509.5391)">
					<stop  offset="0" style="stop-color:#E4408C"/>
					<stop  offset="1" style="stop-color:#C44A88"/>
				</linearGradient>
				
					<polyline id="_x2F_m" style="fill-rule:evenodd;clip-rule:evenodd;fill:url(#_x2F_m_00000075870416868518666040000013877462212414310798_);" points="
					415.2,270.2 443.9,270.2 417.7,355 389.1,355 415.2,270.2 				"/>
				<polyline id="_x2F_m_00000005959013279300085050000006587306162508462505_" class="st2" points="448.7,270.2 477.4,270.2 
					451.2,355 422.5,355 448.7,270.2 				"/>
			</g>
		</g>
	</g>
</g>
</svg>
