<svg width="293" height="295" viewBox="0 0 293 295" fill="none" xmlns="http://www.w3.org/2000/svg">
<rect width="293" height="294.729" rx="17.2861" fill="white"/>
<mask id="mask0_3_9257" style="mask-type:luminance" maskUnits="userSpaceOnUse" x="248" y="133" width="9" height="11">
<path d="M248.69 133.91H256.537V143.763H248.69V133.91Z" fill="white"/>
</mask>
<g mask="url(#mask0_3_9257)">
<path d="M248.724 134.962H256.537V142.78H248.724V134.962Z" fill="black"/>
</g>
<mask id="mask1_3_9257" style="mask-type:luminance" maskUnits="userSpaceOnUse" x="201" y="33" width="56" height="57">
<path d="M201.614 33.3733H256.537V89.0236H201.614V33.3733Z" fill="white"/>
</mask>
<g mask="url(#mask1_3_9257)">
<path d="M248.724 33.3733H201.836V88.0785H256.537V33.3733H248.724ZM248.724 49.004V80.261H209.65V41.1908H248.724V49.004Z" fill="black"/>
</g>
<mask id="mask2_3_9257" style="mask-type:luminance" maskUnits="userSpaceOnUse" x="232" y="95" width="25" height="25">
<path d="M232.268 95.5924H256.537V119.678H232.268V95.5924Z" fill="white"/>
</mask>
<g mask="url(#mask2_3_9257)">
<path d="M248.724 95.8917H240.911V103.705H233.094V111.518H248.724V119.336H256.537V103.705H248.724V95.8917Z" fill="black"/>
</g>
<path d="M240.911 119.336H248.724V127.149H240.911V119.336Z" fill="black"/>
<mask id="mask3_3_9257" style="mask-type:luminance" maskUnits="userSpaceOnUse" x="239" y="150" width="18" height="25">
<path d="M239.932 150.332H256.537V174.417H239.932V150.332Z" fill="white"/>
</mask>
<g mask="url(#mask3_3_9257)">
<path d="M248.724 158.406V174.036H256.537V150.593H240.911V158.406H248.724Z" fill="black"/>
</g>
<path d="M233.093 166.223H201.836V174.036H225.28V181.85H240.911V158.406H233.093V166.223Z" fill="black"/>
<mask id="mask4_3_9257" style="mask-type:luminance" maskUnits="userSpaceOnUse" x="201" y="180" width="56" height="65">
<path d="M201.614 180.986H256.537V244.483H201.614V180.986Z" fill="white"/>
</mask>
<g mask="url(#mask4_3_9257)">
<path d="M233.093 189.663V197.48H225.28V189.663H217.467V181.849H201.836V197.48H217.467V205.293H233.093V220.924H240.911V228.737H225.28V236.55H240.911V244.368H248.724V236.55H256.537V228.737H248.724V213.107H240.911V205.293H256.537V189.663H248.724V181.849H240.911V189.663H233.093Z" fill="black"/>
</g>
<path d="M225.28 49.004H217.467V72.4479H240.911V49.004H225.28Z" fill="black"/>
<path d="M233.093 99.7962H237.785V91.983H229.967V95.8918H225.28V103.705H233.093V99.7962Z" fill="black"/>
<path d="M225.28 127.149V134.962H233.093V150.593H240.911V127.149H225.28Z" fill="black"/>
<path d="M209.649 158.406H225.28V134.962H217.467V142.78H209.649V158.406Z" fill="black"/>
<path d="M209.65 236.551H194.023V244.368H225.28V236.551H209.65Z" fill="black"/>
<path d="M201.836 205.294H209.65V213.107H201.836V205.294Z" fill="black"/>
<path d="M194.023 111.518H201.836V119.335H194.023V127.149H217.467V119.335H209.65V111.518H225.28V103.705H217.467V95.8916H209.65V103.705H201.836V95.8916H194.023V111.518Z" fill="black"/>
<path d="M186.206 134.962H178.393V111.518H170.579V127.149H154.949V142.78H162.766V158.406H170.579V142.78H194.023V150.593H201.836V142.78H209.65V134.962H194.023V127.149H186.206V134.962Z" fill="black"/>
<path d="M178.392 103.705V111.518H186.206V95.8918H194.023V80.2611H186.206V88.0743H178.392V103.705Z" fill="black"/>
<path d="M186.206 158.406V150.593H178.392V174.036H194.023V166.223H186.206V158.406Z" fill="black"/>
<mask id="mask5_3_9257" style="mask-type:luminance" maskUnits="userSpaceOnUse" x="162" y="243" width="34" height="17">
<path d="M162.202 243.389H195.045V259.995H162.202V243.389Z" fill="white"/>
</mask>
<g mask="url(#mask5_3_9257)">
<path d="M178.393 244.368H170.579V252.181H162.766V259.995H186.206V252.181H194.023V244.368H178.393Z" fill="black"/>
</g>
<mask id="mask6_3_9257" style="mask-type:luminance" maskUnits="userSpaceOnUse" x="162" y="33" width="34" height="17">
<path d="M162.202 33.3733H195.045V49.6112H162.202V33.3733Z" fill="white"/>
</mask>
<g mask="url(#mask6_3_9257)">
<path d="M170.579 49.004H178.393V41.1908H194.023V33.3733H162.766V41.1908H170.579V49.004Z" fill="black"/>
</g>
<path d="M170.579 80.2611H178.393V88.0743H170.579V80.2611Z" fill="black"/>
<path d="M170.579 220.924H178.393V213.107H186.206V236.551H194.023V228.737H225.28V213.107H217.467V220.924H194.023V181.85H178.393V197.48H186.206V205.293H170.579V220.924Z" fill="black"/>
<path d="M170.579 228.737H178.393V236.551H170.579V228.737Z" fill="black"/>
<mask id="mask7_3_9257" style="mask-type:luminance" maskUnits="userSpaceOnUse" x="122" y="157" width="49" height="103">
<path d="M122.789 157.995H170.96V259.995H122.789V157.995Z" fill="white"/>
</mask>
<g mask="url(#mask7_3_9257)">
<path d="M170.579 244.368V236.551H162.766V228.738H170.579V220.924H162.766V205.294H170.579V197.481H162.766V189.663H170.579V174.037H162.766V158.406H154.948V174.037H147.135V181.85H154.948V189.663H139.322V197.481H154.948V205.294H147.135V213.107H154.948V220.924H147.135V228.738H154.948V236.551H147.135V228.738H123.691V236.551H131.505V244.368H123.691V259.995H131.505V252.181H162.766V244.368H170.579Z" fill="black"/>
</g>
<mask id="mask8_3_9257" style="mask-type:luminance" maskUnits="userSpaceOnUse" x="122" y="33" width="74" height="57">
<path d="M122.789 33.3733H195.045V89.0236H122.789V33.3733Z" fill="white"/>
</mask>
<g mask="url(#mask8_3_9257)">
<path d="M154.948 88.0742H162.766V80.261H170.579V72.4478H194.023V49.004H186.206V64.6304H178.392V56.8172H154.948V49.004H162.766V41.1908H154.948V33.3733H147.135V41.1908H139.322V33.3733H123.691V41.1908H131.505V49.004H123.691V64.6304H131.505V56.8172H139.322V49.004H147.135V56.8172H139.322V64.6304H154.948V72.4478H147.135V80.261H154.948V88.0742Z" fill="black"/>
</g>
<path d="M154.948 111.518H162.766V103.705H170.579V95.8916H147.135V103.705H154.948V111.518Z" fill="black"/>
<path d="M147.135 80.2611H139.322V95.8918H147.135V80.2611Z" fill="black"/>
<path d="M147.135 150.593H154.949V142.779H139.322V158.406H147.135V150.593Z" fill="black"/>
<path d="M139.322 213.106H147.135V220.924H139.322V213.106Z" fill="black"/>
<path d="M139.322 174.036V158.406H123.692V174.036H131.505V181.85H123.692V197.48H131.505V189.663H139.322V174.036Z" fill="black"/>
<path d="M123.692 88.0742H131.505V72.4478H115.878V80.261H123.692V88.0742Z" fill="black"/>
<path d="M131.505 111.518V127.149H115.878V134.962H123.692V150.593H131.505V134.962H139.322V119.336H154.949V111.518H147.135V103.705H123.692V111.518H131.505Z" fill="black"/>
<path d="M115.878 150.593H123.692V158.406H115.878V150.593Z" fill="black"/>
<mask id="mask9_3_9257" style="mask-type:luminance" maskUnits="userSpaceOnUse" x="29" y="142" width="103" height="118">
<path d="M29.916 142.668H131.547V259.994H29.916V142.668Z" fill="white"/>
</mask>
<g mask="url(#mask9_3_9257)">
<path d="M123.692 213.107H131.505V205.294H115.878V189.663H108.061V174.036H115.878V158.406H108.061V166.223H100.248V174.036H92.4344V181.85H76.8038V166.223H84.617V174.036H92.4344V166.223H100.248V150.593H92.4344V158.406H76.8038V142.779H68.9906V150.593H61.1731V158.406H53.3599V150.593H29.916V158.406H45.5467V166.223H29.916V197.48H37.7335V174.036H53.3599V181.85H61.1731V174.036H68.9906V189.663H76.8038V197.48H92.4344V189.663H100.248V197.48H108.061V205.294H100.248V197.48H92.4344V213.107H115.878V220.924H92.4344V259.995H115.878V244.368H108.061V252.181H100.248V228.737H108.061V236.551H115.878V228.737H123.692V213.107Z" fill="black"/>
</g>
<mask id="mask10_3_9257" style="mask-type:luminance" maskUnits="userSpaceOnUse" x="107" y="33" width="10" height="17">
<path d="M107.462 33.3733H116.22V49.6112H107.462V33.3733Z" fill="white"/>
</mask>
<g mask="url(#mask10_3_9257)">
<path d="M115.878 41.1908V33.3733H108.061V49.004H115.878V41.1908Z" fill="black"/>
</g>
<path d="M108.061 119.336H115.878V103.705H108.061V119.336Z" fill="black"/>
<path d="M108.061 80.261V64.6303H115.878V56.8171H92.4343V64.6303H100.248V72.4478H92.4343V88.0742H100.248V80.261H108.061Z" fill="black"/>
<path d="M108.061 142.779V127.149H100.248V150.593H108.061V142.779Z" fill="black"/>
<path d="M92.4343 41.1904H100.248V49.0036H92.4343V41.1904Z" fill="black"/>
<path d="M84.6169 142.779H92.4344V150.593H84.6169V142.779Z" fill="black"/>
<mask id="mask11_3_9257" style="mask-type:luminance" maskUnits="userSpaceOnUse" x="29" y="205" width="57" height="55">
<path d="M29.916 205.071H85.5663V259.994H29.916V205.071Z" fill="white"/>
</mask>
<g mask="url(#mask11_3_9257)">
<path d="M68.9906 205.294H29.916V259.995H84.6212V205.294H68.9906ZM76.8038 220.924V252.181H37.7335V213.107H76.8038V220.924Z" fill="black"/>
</g>
<path d="M61.173 72.4479H68.9905V49.004H45.5466V72.4479H61.173Z" fill="black"/>
<mask id="mask12_3_9257" style="mask-type:luminance" maskUnits="userSpaceOnUse" x="29" y="79" width="95" height="73">
<path d="M29.916 79.1705H123.884V151.427H29.916V79.1705Z" fill="white"/>
</mask>
<g mask="url(#mask12_3_9257)">
<path d="M61.1731 142.779H68.9906V134.962H61.1731V127.149H68.9906V134.962H92.4344V119.336H100.248V103.705H108.061V95.8917H115.878V103.705H123.691V88.0742H115.878V80.261H108.061V88.0742H100.248V95.8917H92.4344V111.518H84.617V95.8917H76.8038V103.705H68.9906V119.336H61.1731V111.518H53.3599V119.336H45.5467V111.518H53.3599V103.705H68.9906V95.8917H45.5467V103.705H37.7335V95.8917H29.916V119.336H37.7335V127.149H53.3599V134.962H29.916V142.779H53.3599V150.593H61.1774V142.779H61.1731ZM84.617 119.336V127.149H76.8038V119.336H84.617Z" fill="black"/>
</g>
<path d="M53.3598 220.924H45.5466V244.368H68.9905V220.924H53.3598Z" fill="black"/>
<path d="M45.5466 189.663V197.48H61.173V189.663H53.3598V181.85H45.5466V189.663Z" fill="black"/>
<mask id="mask13_3_9257" style="mask-type:luminance" maskUnits="userSpaceOnUse" x="29" y="33" width="57" height="57">
<path d="M29.916 33.3733H85.5663V89.0236H29.916V33.3733Z" fill="white"/>
</mask>
<g mask="url(#mask13_3_9257)">
<path d="M45.5467 88.0742H84.6212V33.3733H29.916V88.0785H45.5467V88.0742ZM37.7335 72.4478V41.1908H76.8038V80.261H37.7335V72.4478Z" fill="black"/>
</g>
<mask id="mask14_3_9257" style="mask-type:luminance" maskUnits="userSpaceOnUse" x="248" y="243" width="9" height="17">
<path d="M248.69 243.389H256.537V259.995H248.69V243.389Z" fill="white"/>
</mask>
<g mask="url(#mask14_3_9257)">
<path d="M248.724 259.995H256.537V244.368H248.724V259.995Z" fill="black"/>
</g>
<mask id="mask15_3_9257" style="mask-type:luminance" maskUnits="userSpaceOnUse" x="224" y="243" width="18" height="17">
<path d="M224.604 243.389H241.026V259.995H224.604V243.389Z" fill="white"/>
</mask>
<g mask="url(#mask15_3_9257)">
<path d="M225.28 259.995H240.911V252.181H233.093V244.368H225.28V259.995Z" fill="black"/>
</g>
<mask id="mask16_3_9257" style="mask-type:luminance" maskUnits="userSpaceOnUse" x="209" y="252" width="10" height="8">
<path d="M209.277 252.147H218.036V259.995H209.277V252.147Z" fill="white"/>
</mask>
<g mask="url(#mask16_3_9257)">
<path d="M209.649 252.181H217.467V259.995H209.649V252.181Z" fill="black"/>
</g>
</svg>
