<svg width="960" height="150" viewBox="0 0 960 150" fill="none" xmlns="http://www.w3.org/2000/svg">
<path d="M-12.2704 64.399C-48.0218 78.2389 -42.6599 113.221 -16.1827 131.487C21.5381 157.512 84.6873 150.649 130.874 142.994C230.536 126.462 324.603 91.2717 394.86 41.5983C403.113 35.7624 410.789 28.362 408.426 19.8075C406.567 13.1017 399.151 8.20302 390.338 5.11655C370.932 -1.69249 346.136 -0.347047 325.455 1.78326C278.784 6.59443 235.381 22.6147 204.728 46.2538C188.814 58.534 171.817 74.9627 174.88 92.1897C177.477 106.846 195.538 115.984 215.838 119.315C237.814 122.917 260.372 120.88 282.191 118.541C309.911 115.583 337.46 112.022 364.805 107.893C474.723 91.2753 581.251 65.4019 680.902 30.9015C693.007 26.7095 705.001 22.3828 716.91 17.9526L708.289 15.7035C725.236 45.901 747.093 80.6317 792.943 96.0914C822.13 105.939 854.919 103.224 885.983 101.424C920.305 99.4414 954.627 97.4586 988.934 95.4841C1028.36 93.2056 1067.8 90.927 1107.23 88.658C1115.55 88.1755 1113.36 79.6157 1105.05 80.0898C1038.24 83.9513 971.422 87.8021 904.612 91.6636C888.42 92.5974 872.228 93.7246 855.993 94.3649C839.759 95.0052 824.08 94.7714 808.969 91.2857C786.634 86.1272 769.425 75.0268 756.167 62.2516C740.335 46.978 729.801 29.5089 720.12 12.263C718.964 10.2071 714.4 8.93172 711.5 10.014C621.325 43.6312 525.047 70.2309 425.177 88.7963C375.594 98.0154 325.169 105.31 274.206 110.599C254.853 112.604 234.02 114.296 214.789 110.257C206.583 108.535 198.84 105.776 193.576 101.079C186.955 95.161 186.345 87.5208 189.103 80.6925C194.848 66.4839 210.801 53.5687 226.46 43.6277C242.118 33.6866 260.573 25.4497 280.575 19.5707C300.317 13.7677 321.464 10.2049 343.124 9.19749C352.943 8.73837 363.078 8.59471 372.785 10.0123C380.415 11.1277 389.896 13.4556 394.022 18.2738C400.124 25.3976 389.798 32.6143 382.971 37.3075C374.698 42.9966 366.052 48.4528 357.201 53.7281C339.694 64.1493 321.153 73.8106 301.75 82.6387C262.647 100.426 219.941 114.732 175.119 125.175C152.775 130.382 129.892 134.647 106.63 137.76C83.3693 140.872 57.0712 142.813 32.5291 139.247C12.0303 136.266 -7.08117 128.862 -16.9549 116.127C-24.5657 106.3 -27.6487 94.0706 -21.3874 83.7329C-18.5257 78.9921 -13.5275 74.9354 -6.87875 72.3651C0.218869 69.618 -5.09803 61.6386 -12.2733 64.4181L-12.2704 64.399Z" fill="#484848" fill-opacity="0.65"/>
</svg>
